<?xml version="1.0" encoding="UTF-8" ?>
<!DOCTYPE svg PUBLIC "-//W3C//DTD SVG 1.1//EN" "http://www.w3.org/Graphics/SVG/1.1/DTD/svg11.dtd">
<svg width="158pt" height="71pt" viewBox="0 0 158 71" version="1.1" xmlns="http://www.w3.org/2000/svg">
<path fill="#ffffff" d=" M 0.00 0.00 L 30.35 0.00 C 21.91 4.60 13.71 9.64 5.31 14.31 C 3.41 15.34 1.64 16.58 0.00 17.99 L 0.00 0.00 Z" />
<path fill="#42187e" d=" M 30.35 0.00 L 32.11 0.00 C 41.03 5.00 49.81 10.25 58.72 15.28 C 60.48 16.29 62.74 17.52 62.40 19.94 C 62.48 30.30 62.47 40.67 62.40 51.02 C 62.79 53.81 59.95 54.97 58.02 56.15 C 49.32 61.02 40.80 66.20 32.07 71.00 L 30.31 71.00 C 21.70 66.23 13.28 61.12 4.69 56.31 C 2.93 55.29 0.98 54.32 0.00 52.42 L 0.00 17.99 C 1.64 16.58 3.41 15.34 5.31 14.31 C 13.71 9.64 21.91 4.60 30.35 0.00 Z" />
<path fill="#ffffff" d=" M 32.11 0.00 L 158.00 0.00 L 158.00 23.06 C 151.90 23.06 145.79 23.06 139.69 23.06 C 139.68 24.31 139.68 25.56 139.69 26.81 C 142.02 26.81 144.35 26.82 146.69 26.82 C 146.69 33.86 146.69 40.90 146.69 47.93 C 148.14 47.94 149.60 47.94 151.06 47.94 C 151.06 40.90 151.06 33.86 151.07 26.82 C 153.38 26.82 155.69 26.81 158.00 26.81 L 158.00 71.00 L 32.07 71.00 C 40.80 66.20 49.32 61.02 58.02 56.15 C 59.95 54.97 62.79 53.81 62.40 51.02 C 62.47 40.67 62.48 30.30 62.40 19.94 C 62.74 17.52 60.48 16.29 58.72 15.28 C 49.81 10.25 41.03 5.00 32.11 0.00 Z" />
<path fill="#ffffff" d=" M 1.99 18.77 C 11.58 12.95 21.41 7.52 31.09 1.84 C 40.93 7.39 50.80 12.94 60.42 18.87 C 60.34 29.96 60.33 41.06 60.43 52.15 C 50.81 58.07 40.95 63.62 31.10 69.16 C 21.42 63.48 11.60 58.03 2.00 52.22 C 2.00 41.07 2.01 29.92 1.99 18.77 Z" />
<path fill="#42187e" d=" M 13.98 22.91 C 19.72 19.68 24.90 15.39 30.97 12.82 C 31.54 19.19 31.16 25.61 31.23 32.00 C 31.68 33.98 29.72 34.68 28.44 35.63 C 29.53 36.53 31.52 37.11 31.23 38.92 C 31.25 45.39 31.35 51.86 31.12 58.33 C 27.80 57.63 25.27 55.22 22.38 53.60 C 18.37 50.95 14.09 48.68 10.24 45.79 C 9.69 39.50 10.13 33.14 10.01 26.83 C 9.88 24.62 12.60 24.06 13.98 22.91 Z" />
<path fill="#ffffff" d=" M 12.97 25.91 C 18.43 22.42 23.88 18.90 29.47 15.61 C 29.49 21.34 29.59 27.08 29.40 32.81 C 28.72 33.24 27.35 34.10 26.67 34.52 C 22.10 31.65 17.52 28.81 12.97 25.91 Z" />
<path fill="#42187e" d=" M 77.25 23.07 C 81.77 23.30 86.63 22.29 90.89 24.22 C 95.16 26.23 94.43 33.41 89.80 34.55 C 94.77 35.32 96.76 41.72 93.34 45.28 C 89.03 49.34 82.57 47.55 77.25 47.93 C 77.25 39.64 77.25 31.36 77.25 23.07 Z" />
<path fill="#42187e" d=" M 102.62 23.07 C 104.08 23.07 105.54 23.06 107.00 23.06 C 107.00 31.35 107.00 39.65 107.00 47.94 C 105.54 47.94 104.08 47.93 102.62 47.93 C 102.62 39.64 102.63 31.36 102.62 23.07 Z" />
<path fill="#42187e" d=" M 116.31 23.07 C 121.03 23.36 126.21 22.13 130.56 24.45 C 135.39 27.56 134.06 35.80 128.75 37.71 C 130.66 41.12 132.57 44.53 134.46 47.95 C 132.81 47.93 131.16 47.93 129.51 47.92 C 127.80 44.70 126.05 41.50 124.35 38.27 C 123.13 38.26 121.91 38.25 120.69 38.25 C 120.69 41.48 120.68 44.71 120.69 47.94 C 119.23 47.93 117.77 47.93 116.31 47.94 C 116.31 39.65 116.31 31.36 116.31 23.07 Z" />
<path fill="#42187e" d=" M 139.69 26.81 C 139.68 25.56 139.68 24.31 139.69 23.06 C 145.79 23.06 151.90 23.06 158.00 23.06 L 158.00 26.81 C 155.69 26.81 153.38 26.82 151.07 26.82 C 151.06 33.86 151.06 40.90 151.06 47.94 C 149.60 47.94 148.14 47.94 146.69 47.93 C 146.69 40.90 146.69 33.86 146.69 26.82 C 144.35 26.82 142.02 26.81 139.69 26.81 Z" />
<path fill="#ffffff" d=" M 81.63 26.53 C 83.72 26.64 85.93 26.31 87.92 27.10 C 90.11 28.14 89.86 31.77 87.73 32.75 C 85.81 33.58 83.66 33.23 81.63 33.35 C 81.63 31.08 81.63 28.80 81.63 26.53 Z" />
<path fill="#ffffff" d=" M 120.70 26.59 C 122.75 26.67 124.86 26.51 126.88 27.02 C 129.98 27.88 129.88 32.86 127.11 34.07 C 125.09 34.95 122.82 34.60 120.68 34.70 C 120.68 32.00 120.69 29.29 120.70 26.59 Z" />
<path fill="#ffffff" d=" M 12.08 27.71 C 16.43 30.20 20.61 32.99 24.90 35.60 C 20.64 38.28 16.42 41.02 12.09 43.57 C 12.04 38.29 12.05 33.00 12.08 27.71 Z" />
<path fill="#ffffff" d=" M 12.90 45.36 C 17.46 42.42 22.09 39.59 26.67 36.68 C 27.67 37.62 29.66 38.17 29.36 39.91 C 29.41 45.17 29.38 50.44 29.33 55.70 C 23.83 52.29 18.32 48.90 12.90 45.36 Z" />
<path fill="#ffffff" d=" M 81.63 36.54 C 84.00 36.64 86.49 36.29 88.75 37.17 C 91.47 38.26 91.29 42.64 88.71 43.78 C 86.48 44.75 83.98 44.35 81.63 44.46 C 81.63 41.82 81.63 39.18 81.63 36.54 Z" />
<path fill="#ffffff" d=" M 0.00 52.42 C 0.98 54.32 2.93 55.29 4.69 56.31 C 13.28 61.12 21.70 66.23 30.31 71.00 L 0.00 71.00 L 0.00 52.42 Z" />
</svg>
